<mxfile host="app.diagrams.net" modified="2023-02-04T07:56:11.541Z" agent="5.0 (Windows NT 6.1; Win64; x64) AppleWebKit/537.36 (KHTML, like Gecko) Chrome/100.0.4896.127 Safari/537.36" etag="91dyDGsDM97jlvMtwn-W" version="20.8.16" type="github">
  <diagram name="第 1 页" id="0Si8MJJfsNAT3Dmsm73e">
    <mxGraphModel dx="1434" dy="802" grid="1" gridSize="10" guides="1" tooltips="1" connect="1" arrows="1" fold="1" page="1" pageScale="1" pageWidth="827" pageHeight="1169" math="0" shadow="0">
      <root>
        <mxCell id="0" />
        <mxCell id="1" parent="0" />
        <mxCell id="WN4g4RqkLYcWiyr4WCn2-9" style="edgeStyle=orthogonalEdgeStyle;rounded=0;orthogonalLoop=1;jettySize=auto;html=1;exitX=0.5;exitY=1;exitDx=0;exitDy=0;entryX=0.5;entryY=0;entryDx=0;entryDy=0;" edge="1" parent="1" source="WN4g4RqkLYcWiyr4WCn2-1" target="WN4g4RqkLYcWiyr4WCn2-5">
          <mxGeometry relative="1" as="geometry" />
        </mxCell>
        <mxCell id="WN4g4RqkLYcWiyr4WCn2-1" value="模型" style="rounded=1;whiteSpace=wrap;html=1;" vertex="1" parent="1">
          <mxGeometry x="310" y="320" width="120" height="60" as="geometry" />
        </mxCell>
        <mxCell id="WN4g4RqkLYcWiyr4WCn2-2" value="抽象" style="ellipse;whiteSpace=wrap;html=1;" vertex="1" parent="1">
          <mxGeometry x="230" y="320" width="80" height="60" as="geometry" />
        </mxCell>
        <mxCell id="WN4g4RqkLYcWiyr4WCn2-4" style="edgeStyle=orthogonalEdgeStyle;rounded=0;orthogonalLoop=1;jettySize=auto;html=1;exitX=0.5;exitY=1;exitDx=0;exitDy=0;entryX=0.5;entryY=0;entryDx=0;entryDy=0;" edge="1" parent="1" source="WN4g4RqkLYcWiyr4WCn2-3" target="WN4g4RqkLYcWiyr4WCn2-1">
          <mxGeometry relative="1" as="geometry" />
        </mxCell>
        <mxCell id="WN4g4RqkLYcWiyr4WCn2-3" value="信念" style="rounded=1;whiteSpace=wrap;html=1;" vertex="1" parent="1">
          <mxGeometry x="310" y="160" width="120" height="60" as="geometry" />
        </mxCell>
        <mxCell id="WN4g4RqkLYcWiyr4WCn2-13" style="edgeStyle=orthogonalEdgeStyle;rounded=0;orthogonalLoop=1;jettySize=auto;html=1;exitX=1;exitY=0.5;exitDx=0;exitDy=0;entryX=0.5;entryY=1;entryDx=0;entryDy=0;" edge="1" parent="1" source="WN4g4RqkLYcWiyr4WCn2-5" target="WN4g4RqkLYcWiyr4WCn2-10">
          <mxGeometry relative="1" as="geometry" />
        </mxCell>
        <mxCell id="WN4g4RqkLYcWiyr4WCn2-5" value="行动" style="rounded=1;whiteSpace=wrap;html=1;" vertex="1" parent="1">
          <mxGeometry x="310" y="470" width="120" height="60" as="geometry" />
        </mxCell>
        <mxCell id="WN4g4RqkLYcWiyr4WCn2-6" value="结构化" style="ellipse;whiteSpace=wrap;html=1;" vertex="1" parent="1">
          <mxGeometry x="230" y="260" width="80" height="60" as="geometry" />
        </mxCell>
        <mxCell id="WN4g4RqkLYcWiyr4WCn2-7" value="拆解" style="ellipse;whiteSpace=wrap;html=1;" vertex="1" parent="1">
          <mxGeometry x="230" y="440" width="80" height="60" as="geometry" />
        </mxCell>
        <mxCell id="WN4g4RqkLYcWiyr4WCn2-8" value="时间" style="ellipse;whiteSpace=wrap;html=1;" vertex="1" parent="1">
          <mxGeometry x="230" y="500" width="80" height="60" as="geometry" />
        </mxCell>
        <mxCell id="WN4g4RqkLYcWiyr4WCn2-14" style="edgeStyle=orthogonalEdgeStyle;rounded=0;orthogonalLoop=1;jettySize=auto;html=1;exitX=0.5;exitY=0;exitDx=0;exitDy=0;entryX=1;entryY=0.5;entryDx=0;entryDy=0;" edge="1" parent="1" source="WN4g4RqkLYcWiyr4WCn2-10" target="WN4g4RqkLYcWiyr4WCn2-3">
          <mxGeometry relative="1" as="geometry" />
        </mxCell>
        <mxCell id="WN4g4RqkLYcWiyr4WCn2-10" value="复盘" style="rounded=1;whiteSpace=wrap;html=1;" vertex="1" parent="1">
          <mxGeometry x="550" y="290" width="120" height="60" as="geometry" />
        </mxCell>
        <mxCell id="WN4g4RqkLYcWiyr4WCn2-11" value="直面自己" style="ellipse;whiteSpace=wrap;html=1;" vertex="1" parent="1">
          <mxGeometry x="480" y="260" width="80" height="60" as="geometry" />
        </mxCell>
        <mxCell id="WN4g4RqkLYcWiyr4WCn2-12" value="真正的思考" style="ellipse;whiteSpace=wrap;html=1;" vertex="1" parent="1">
          <mxGeometry x="480" y="320" width="80" height="60" as="geometry" />
        </mxCell>
      </root>
    </mxGraphModel>
  </diagram>
</mxfile>
